<svg width="23.999999999999996" height="23.999999999999996" xmlns="http://www.w3.org/2000/svg">

 <g>
  <title>background</title>
  <rect fill="none" id="canvas_background" height="402" width="582" y="-1" x="-1"/>
 </g>
 <g>
  <title>Layer 1</title>
  <polygon id="svg_2" points="12.153992,10.729553 8.088684,5.041199 5.92041,5.041199 10.956299,12.087097 11.59021,12.97345    15.900635,19.009583 18.068909,19.009583 12.785217,11.615906  "/>
  <path stroke="null" id="svg_3" d="m21.895564,0.032258l-19.791127,0c-1.098001,0 -1.988028,0.891603 -1.988028,1.991547l0,19.826162c0,1.099944 0.890027,1.991547 1.988028,1.991547l19.791127,0c1.098001,0 1.988028,-0.891603 1.988028,-1.991547l0,-19.826162c0,-1.099944 -0.890027,-1.991547 -1.988028,-1.991547zm-6.400329,20.562539l-4.712978,-6.723961l-5.900052,6.723961l-1.524816,0l6.74868,-7.688961l-6.74868,-9.626861l5.147377,0l4.461889,6.365686l5.590473,-6.365686l1.524751,0l-6.435472,7.332861l6.996205,9.982961l-5.147377,0z"/>
 </g>
</svg>